<svg data-v-0dd9719b="" version="1.0" xmlns="http://www.w3.org/2000/svg" xmlns:xlink="http://www.w3.org/1999/xlink" width="100%" height="100%" viewBox="0 0 340.000000 250.000000" preserveAspectRatio="xMidYMid meet" color-interpolation-filters="sRGB" style="margin: auto;"> <rect data-v-0dd9719b="" x="0" y="0" width="100%" height="100%" fill="#fff" fill-opacity="1" class="background"></rect> <rect data-v-0dd9719b="" x="0" y="0" width="100%" height="100%" fill="url(#watermark)" fill-opacity="1" class="watermarklayer"></rect> <g data-v-0dd9719b="" fill="#333333" class="icon-text-wrapper icon-svg-group iconsvg" transform="translate(48.60499572753906,98.56362342834473)"><g class="iconsvg-imagesvg" transform="translate(0,0)"><g><rect fill="#333333" fill-opacity="0" stroke-width="2" x="0" y="0" width="60" height="52.87275290800141" class="image-rect"></rect> <svg x="0" y="0" width="60" height="52.87275290800141" filtersec="colorsb8854087080" class="image-svg-svg primary" style="overflow: visible;"><svg xmlns="http://www.w3.org/2000/svg" viewBox="0 0 113.4800033569336 100"><g><g><path fill="#02035e" d="M84.94 62.54l-28.2-12.38-28.19 12.38L0 75.08 56.74 100l56.74-24.92-28.54-12.54z"></path><path fill="#00b0d8" opacity=".8" d="M84.94 37.46l-28.2-12.38-28.19 12.38L0 50l28.55 12.54 28.19 12.38 28.2-12.38L113.48 50 84.94 37.46z"></path><path fill="#00b0d8" opacity=".5" d="M56.74 0L0 24.92l28.55 12.54 28.19 12.38 28.2-12.38 28.54-12.54L56.74 0z"></path></g></g></svg></svg> <!----></g></g> <g transform="translate(67,1.7301273345947266)"><g data-gra="path-name" fill-rule="" class="tp-name iconsvg-namesvg" transform="translate(0,0)"><g transform="scale(1)"><g><path d="M22.28-11.81Q24.26-9.29 27.11-7.16 29.95-5.04 33.95-2.99L33.95-2.99 29.95 3.02Q25.31 0.86 22.01-3.04 18.72-6.95 16.78-11.81L16.78-11.81 13.21-11.81 13.21-4.28Q16.99-4.82 18.79-5.15L18.79-5.15 19.91-2.05Q17.42-0.14 14 1.03 10.58 2.2 6.16 3.1L6.16 3.1 4.9-3.46Q5.51-3.49 7.09-3.64L7.09-3.64 7.13-11.81 3.06-11.81 3.06-16.81 7.13-16.81 7.16-29.63 13.21-29.63 13.21-16.81 32.98-16.81 32.98-11.81 22.28-11.81ZM31.75-24.23Q27.94-21.31 24.32-19.82 20.7-18.32 15.16-17.35L15.16-17.35 13.97-20.63Q18-22.72 20.72-24.66 23.44-26.6 26.5-29.45L26.5-29.45 31.75-24.23ZM70.88-8.71L67.9-4.32Q65.88-5.44 64.58-6.41L64.58-6.41 64.58 3.64 58.1 3.64 58.1 2.23 50.04 2.27 50.04 3.64 43.52 3.64 43.56-7.27Q41.44-5.83 39.13-4.64L39.13-4.64 37.22-7.42Q40.75-10.44 43.2-13.39L43.2-13.39 37.94-13.39 37.94-17.5 46.08-17.5 46.73-18.65 40.82-18.65 40.82-22.43 48.38-22.43 48.74-23.54 39.67-23.54 39.67-27.65 49.97-27.65 50.54-30.06 57.46-29.3 57.1-27.68 68.29-27.68 68.29-23.58 55.94-23.58Q55.84-23.33 55.76-23.06 55.69-22.79 55.58-22.46L55.58-22.46 67.18-22.46 67.18-18.68 54-18.65Q53.82-18.25 53.39-17.5L53.39-17.5 70.09-17.53 70.09-13.43 63.47-13.43Q66.42-10.91 70.88-8.71L70.88-8.71ZM58.57-13.43L50.62-13.39 49.39-12.02 59.4-12.02 58.57-13.43ZM50.04-6.62L58.1-6.66 58.1-7.99 50.04-7.96 50.04-6.62ZM50.04-3.24L50.04-1.84 58.1-1.87 58.1-3.28 50.04-3.24ZM105.73-19.73L93.02-19.73 93.02-16.81 103.93-16.81 103.93-4.36Q103.93 0.25 100.73 0.25L100.73 0.25 97.24 0.25 96.73-3.28 95.26-3.28 95.26-4.54 98.17-4.54 98.17-11.92 93.02-11.92 93.02 3.82 86.87 3.82 86.87-11.92 82.44-11.92 82.44 0.07 76.68 0.07 76.68-16.81 86.87-16.81 86.87-19.73 74.38-19.73 74.38-25.02 87.7-25.02Q86.62-26.78 85.25-28.37L85.25-28.37 87.44-30.64Q91.3-29.34 94.68-26.68L94.68-26.68 92.74-25.02 105.73-25.02 105.73-19.73ZM120.46-13.82Q122.29-12.64 123.64-11.41 124.99-10.19 126.36-8.46L126.36-8.46 122.54-5.26 122.26-5.94Q121.1-8.64 120.46-9.9L120.46-9.9 120.46 3.74 115.16 3.74 115.16-7.16Q113.44-4.32 110.63-2.34L110.63-2.34 109.01-4Q110.41-6.55 111.42-9.02 112.43-11.48 113.22-14.33L113.22-14.33 109.73-14.33 109.73-19.3 115.16-19.3 115.16-22.64Q112.75-22.46 110.2-22.43L110.2-22.43 109.91-25.49Q113.76-26.5 117-27.5 120.24-28.51 123.44-29.84L123.44-29.84 125.82-24.05Q123.44-23.58 120.46-23.18L120.46-23.18 120.46-19.3 125.68-19.3 125.68-14.36 120.46-14.36 120.46-13.82ZM135.22-26.68L140.72-26.68 140.72 1.94 135.22 1.94 135.22-0.47 132.16-0.47 132.16 1.98 126.61 1.98 126.68-26.68 132.16-26.68 132.16-24.08Q132.34-25.31 133.11-25.99 133.88-26.68 135.22-26.68L135.22-26.68ZM132.16-6.34L135.22-6.34 135.22-20.81 132.16-20.81 132.16-6.34ZM156.64-28.19Q155.45-24.05 154.15-21.2L154.15-21.2 154.15 3.67 148.68 3.67 148.68-12.89Q147.85-11.95 146.95-10.94L146.95-10.94 144.54-12.89Q146.77-17.75 148.03-21.55 149.29-25.34 150.41-30.17L150.41-30.17 156.64-28.19ZM174.89-4.57L178.85-3.46Q178.85-0.43 177.77 1.37 176.69 3.17 174.2 3.17L174.2 3.17 160.63 3.17Q158.83 3.17 157.86 1.94 156.89 0.72 156.89-1.48L156.89-1.48 156.89-14.83 155.27-14.44 154.48-19.01 156.89-19.58 156.89-27.54 162.65-27.54 162.65-20.99 164.84-21.46 164.84-29.41 170.03-29.41 170.03-22.75 172.66-23.36 172.66-24.41 177.95-24.41 177.95-11.99Q177.95-9.68 177.1-8.51 176.26-7.34 174.64-7.34L174.64-7.34 171.68-7.34 171.18-10.33 170.03-10.33 170.03-4.86 164.84-4.86 164.84-16.7 162.65-16.16 162.65-1.98 173.41-1.98 173.41-6.16 174.89-6.16 174.89-4.57ZM172.66-11.59L172.66-18.54 170.03-17.93 170.03-11.59 172.66-11.59Z" transform="translate(-3.059999942779541, 30.639999389648438)"></path></g> <!----> <!----> <!----> <!----> <!----> <!----> <!----></g></g> <g data-gra="path-slogan" fill-rule="" class="tp-slogan iconsvg-slogansvg" fill="#333333" transform="translate(7.575004577636719,40.459999084472656)"><rect width="0"></rect> <rect x="163.63999938964844" width="2.1500091552734375"></rect> <g transform="translate(0,0)"><g transform="scale(1)"><path d="M8.06-6.05L8.06-6.05L6.94-6.05Q6.52-7.78 4.55-7.83L4.55-7.83Q1.83-7.69 1.73-4.36L1.73-4.36Q1.73-0.80 4.59-0.80L4.59-0.80Q6.56-0.84 7.03-3.19L7.03-3.19L8.16-3.19Q7.64 0.05 4.36 0.14L4.36 0.14Q0.61 0 0.52-4.31L0.52-4.31Q0.70-8.63 4.55-8.81L4.55-8.81Q7.59-8.72 8.06-6.05ZM10.69-5.06L15.19-5.06L15.19-8.58L16.36-8.58L16.36 0L15.19 0L15.19-3.98L10.69-3.98L10.69 0L9.52 0L9.52-8.58L10.69-8.58L10.69-5.06ZM23.81 0L22.97-2.48L19.50-2.48L18.61 0L17.44 0L20.67-8.58L21.98-8.58L25.08 0L23.81 0ZM21.23-7.31L19.88-3.52L22.55-3.52L21.28-7.31L21.23-7.31ZM27.52-8.58L31.83-1.64L31.83-8.58L32.95-8.58L32.95 0L31.64 0L27.28-6.94L27.23-6.94L27.23 0L26.11 0L26.11-8.58L27.52-8.58ZM41.16-3.61L38.53-3.61L38.53-4.59L42.28-4.59L42.28 0L41.53 0L41.25-1.08Q40.27 0.09 38.44 0.14L38.44 0.14Q36.70 0.14 35.77-0.75L35.77-0.75Q34.36-2.06 34.41-4.36L34.41-4.36Q34.73-8.63 38.48-8.81L38.48-8.81Q41.67-8.63 42.14-6L42.14-6L41.02-6Q40.55-7.78 38.44-7.83L38.44-7.83Q35.77-7.64 35.63-4.31L35.63-4.31Q35.63-0.75 38.48-0.75L38.48-0.75Q39.52-0.75 40.27-1.31L40.27-1.31Q41.20-2.06 41.16-3.61L41.16-3.61ZM51.23-6.05L51.23-6.05L50.11-6.05Q49.69-7.78 47.72-7.83L47.72-7.83Q45-7.69 44.91-4.36L44.91-4.36Q44.91-0.80 47.77-0.80L47.77-0.80Q49.73-0.84 50.20-3.19L50.20-3.19L51.33-3.19Q50.81 0.05 47.53 0.14L47.53 0.14Q43.78 0 43.69-4.31L43.69-4.31Q43.88-8.63 47.72-8.81L47.72-8.81Q50.77-8.72 51.23-6.05ZM53.86-5.06L58.36-5.06L58.36-8.58L59.53-8.58L59.53 0L58.36 0L58.36-3.98L53.86-3.98L53.86 0L52.69 0L52.69-8.58L53.86-8.58L53.86-5.06ZM66.98-3.19L66.98-8.58L68.16-8.58L68.16-3.05Q68.02 0.05 64.64 0.14L64.64 0.14Q61.50 0.05 61.36-2.86L61.36-2.86L61.36-8.58L62.53-8.58L62.53-3.19Q62.58-0.84 64.69-0.80L64.69-0.80Q66.98-0.84 66.98-3.19L66.98-3.19ZM71.34-8.58L75.66-1.64L75.66-8.58L76.78-8.58L76.78 0L75.47 0L71.11-6.94L71.06-6.94L71.06 0L69.94 0L69.94-8.58L71.34-8.58ZM89.06-6.05L89.06-6.05L87.94-6.05Q87.52-7.78 85.55-7.83L85.55-7.83Q82.83-7.69 82.73-4.36L82.73-4.36Q82.73-0.80 85.59-0.80L85.59-0.80Q87.56-0.84 88.03-3.19L88.03-3.19L89.16-3.19Q88.64 0.05 85.36 0.14L85.36 0.14Q81.61 0 81.52-4.31L81.52-4.31Q81.70-8.63 85.55-8.81L85.55-8.81Q88.59-8.72 89.06-6.05ZM90.70-8.58L91.88-8.58L91.88 0L90.70 0L90.70-8.58ZM96.05-7.59L93.14-7.59L93.14-8.58L100.08-8.58L100.08-7.59L97.17-7.59L97.17 0L96.05 0L96.05-7.59ZM108.05-8.58L104.81-3.47L104.81 0L103.64 0L103.64-3.47L100.41-8.58L101.77-8.58L104.20-4.45L106.69-8.58L108.05-8.58ZM118.08 0L117.23-2.48L113.77-2.48L112.88 0L111.70 0L114.94-8.58L116.25-8.58L119.34 0L118.08 0ZM115.50-7.31L114.14-3.52L116.81-3.52L115.55-7.31L115.50-7.31ZM121.78-8.58L126.09-1.64L126.09-8.58L127.22-8.58L127.22 0L125.91 0L121.55-6.94L121.50-6.94L121.50 0L120.38 0L120.38-8.58L121.78-8.58ZM132.52 0L129.05 0L129.05-8.58L132.56-8.58Q136.03-8.39 136.17-4.41L136.17-4.41Q135.98-0.09 132.52 0L132.52 0ZM132.38-7.64L130.22-7.64L130.22-0.98L132.47-0.98Q134.91-1.13 135-4.31L135-4.31Q134.95-7.55 132.38-7.64L132.38-7.64ZM142.13-5.06L146.63-5.06L146.63-8.58L147.80-8.58L147.80 0L146.63 0L146.63-3.98L142.13-3.98L142.13 0L140.95 0L140.95-8.58L142.13-8.58L142.13-5.06ZM149.77-8.58L150.94-8.58L150.94 0L149.77 0L149.77-8.58ZM161.16-8.58L161.16 0L160.03 0L160.03-5.06Q160.03-5.77 160.03-7.22L160.03-7.22L157.59 0L156.42 0L154.03-7.22L153.98-7.22Q153.98-6.70 154.03-5.67L154.03-5.67Q154.03-5.16 154.03-5.06L154.03-5.06L154.03 0L152.86 0L152.86-8.58L154.55-8.58L157.03-1.31L159.47-8.58L161.16-8.58Z" transform="translate(-0.515625, 8.8125)"></path></g></g></g></g></g><defs v-gra="od"></defs></svg>